/* XPM */
static char *_30374fc0f54470bb283052b88d3e7518D4w3LC9wtNPEc1N[] = {
/* columns rows colors chars-per-pixel */
"64 64 102 2 ",
"   c None",
".  c black",
"X  c #020202",
"o  c #090000",
"O  c #090203",
"+  c #090702",
"@  c #090909",
"#  c gray4",
"$  c #0B0B0B",
"%  c #111111",
"&  c gray10",
"*  c #270000",
"=  c #2E0000",
"-  c #270A0D",
";  c #2F0909",
":  c #300000",
">  c #300909",
",  c #261F07",
"<  c #300D10",
"1  c #2D2508",
"2  c #2F2609",
"3  c #2F2810",
"4  c #252525",
"5  c gray15",
"6  c #272727",
"7  c #2E2525",
"8  c gray16",
"9  c #2F2E28",
"0  c #2D2D2D",
"q  c gray18",
"w  c #2F2F2F",
"e  c #302727",
"r  c gray19",
"t  c gray22",
"y  c #560000",
"u  c #562727",
"i  c #563030",
"p  c #554510",
"a  c #4C4C4C",
"s  c gray30",
"d  c #4E4E4E",
"f  c #564D4D",
"g  c #565656",
"h  c #5D5D5D",
"j  c #7B7272",
"k  c #7B7B7B",
"l  c #A80000",
"z  c #AA0202",
"x  c #AE0000",
"c  c #A82D39",
"v  c #CF0000",
"b  c #D80000",
"n  c #D80909",
"m  c #F60000",
"M  c red",
"N  c #FF0909",
"B  c #CF2727",
"V  c #D83030",
"C  c #F62727",
"Z  c #FF2727",
"A  c #FF3030",
"S  c #CF3846",
"D  c #F64D4D",
"F  c #F84F4F",
"G  c #FF4557",
"H  c #FF5656",
"J  c #A5861F",
"K  c #AB8B20",
"L  c #CBA526",
"P  c #D4AC28",
"I  c #F1C42D",
"U  c #FACB2F",
"Y  c #FACD36",
"T  c #CCAD46",
"R  c #FBD34F",
"E  c #FBD556",
"W  c gray66",
"Q  c #AAAAAA",
"!  c #AEAEAE",
"~  c gray69",
"^  c #B1B1B1",
"/  c #B9B9B9",
"(  c #CFA8A8",
")  c #D8A8A8",
"_  c #D8B1B1",
"`  c #FFA8A8",
"'  c #E0BABA",
"]  c #CEC7AF",
"[  c #FDEDB8",
"{  c gray81",
"}  c #D8CFCF",
"|  c #D8D8D8",
" . c gray85",
".. c #F6CFCF",
"X. c #FFCFCF",
"o. c #FFD8D8",
"O. c #FEF5D8",
"+. c gray88",
"@. c #F6F6F6",
"#. c #FFF6F6",
"$. c #F8F8F8",
"%. c white",
/* pixels */
"                        . . . . . . . . . . . .                                                                                 ",
"                    . . %.%.%.%.M M M M %.%.%.%.. .                                                                             ",
"                    . . %.%.%.%.M M M M %.%.%.%.: =                                                                             ",
"                    . . %.%.%.%.M M M M %.%.%.%.v x = .                                                                         ",
"                    . . %.%.%.%.M M M M %.%.%.%.M v : .                                                                         ",
"                    . . %.%.%.%.M M M M %.X.A M M v : .                                                                         ",
"                    . . { { { { v v v v X.` Z M M v : .                                                                         ",
"                        r r r r : : : : A Z N M M v : .                                                                         ",
"                        . . . . . . . . M M M M M v : .                                                                         ",
"                                        . r { %.M v : . . . . . . . . . . . . . . . . . . . . .                                 ",
"                                        . r { %.A V i r . @ 6 r r r r r r r r r r r r r r r r r                                 ",
"                                . . . . . r { %.X...} { . 6 W { { { { { { { { { { { { { { { { { . . . .                         ",
"                                . . . . . r { %.%.%.%.%.. r { %.%.%.%.%.%.%.%.%.%.%.%.%.%.%.%.%.. . . .                         ",
"                                . r { %.. : v M %.%.%.%.. . . . . . . . . . . . . . . . . . . . %.%.%.%.. .                     ",
"                                . 6 W { . * l v X.X.X.X.: * o . @ @ @ @ @ @ @ @ @ @ @ @ @ @ @ @ { | @.%.. .                     ",
"                        . . . . . @ 6 r . o * : A A A A v l * . q q q q q q q q q q q q q q q q r g | %.. .                     ",
"                        . . . . . . . . . . . . M M M M M v : . t t t t t t t t t t t t t t t t . r { %.. .                     ",
"                    . . %.%.%.%.. r { %.%.%.%.%.. . . . . . . . . . . . . . . . . . . . . . . . . . . . . .                     ",
"                    q r %.@.| { . r { %.%.%.%.%.r r r r . @ 6 r r r r r r r r r r 8 % @ $ @ . . r 8 % @ . .                     ",
"                . q ! { %.| g r . r { %.%.%.%.%.{ { { { . 6 W { { { { { { { { { { ^ a q q 6 @ . { ! s q . .                     ",
"                . r { %.%.{ r . . r { %.%.%.%.%.%.%.%.%.. r { %.%.%.%.%.%.%.%.%.%.| h t t q @ . %.| h t . .                     ",
"                . r { %.. .     . r { %.%.%.%.%.%.%.%.%.. r { %.%.%.%.%.%.%.%.%.%.%.%.%.t q @ . %.%.%.%.. .                     ",
"                . r { %.. .     . r { %.%.%.%.%.%.%.%.%.. r { %.%.%.%.%.%.%.%.%.%.$.+.| t q $ . %.$.+.| . .                     ",
"                . r { %.. .     . r { %.%.%.%.%.%.%.%.%.. r { %.%.%.%.%.%.%.%.%.%.+.k h t q @ . %.+.k h . .                     ",
"                . r { %.. .     . r { %.%.%.%.%.%.%.%.%.. r { %.%.%.%.%.%.%.%.%.%.| h t t q @ . %.| h t . .                     ",
"                . r { %.. . . . . r { %.%.%.%.%.%.%.%.%.%.{ r . %.%.%.%.%.%.%.%.%.| h t t q @ . %.| h t . .                     ",
"                . r { %.. @ 6 r . r { %.%.%.%.%.%.%.%.%.%.| g r { | @.%.%.%.%.%.%.+.k h q 7 ; : X.' j h . .                     ",
"                . r { %.. 6 W { . r { %.%.%.%.%.%.%.%.%.%.@.| { r g | %.%.%.%.%.%.$.+.| @ ; l v A F ' | . .                     ",
"                . r { %.. r { %.. r { %.%.%.%.%.%.%.%.%.%.%.%.%.. r { %.%.%.%.%.%.%.%.%.. : v M M A X.%.. .                     ",
"                . r { %.%.{ r . . r { %.%.%.%.%.%.{ r . . r { %.%.{ r . . . . . . . . . %.X.A M M A X.%.. .                     ",
"                . q ! { %.| g r r s ^ { %.%.%.%.{ W 6 . . 6 W { { ^ s r r r r r r r r r %.o.H A A D _ { . .                     ",
"                    q r %.@.| { { ^ s r %.%.%.%.r 6 @ . . @ 6 r r s ^ { { { { { { { { { %.#.o.X.X._ f r                         ",
"                    . . %.%.%.%.%.{ r . %.%.%.%.. . . . . . . . . r { %.%.%.%.%.%.%.%.%.%.%.%.%.%.{ r .                         ",
"                        . . . . . . . . %.%.%.%.. . . . . . . . . . . . . r { %.%.%.%.%.%.%.%.%.%.{ r .                         ",
"                        . . . . . . . . { | @.%.r 6 @ . < < < < < - o . . 6 W { { { { { %.%.%.%.{ ! q .                         ",
"                                        r g | %.{ W 6 . S S S S S c - . . @ 6 r r r r r %.%.%.%.r q                             ",
"                                        . r { %.%.{ r . G G G G G S < . . . . . . . . . %.%.%.%.. .                             ",
"                                            . . %.%.%.%.. . . . . < S G . . . . . r { %.%.{ r . . .                             ",
"                                            @ @ { | @.%.r r r r . - c S . . . . r g | %.{ W q @ @ @                             ",
"                                    . . . $ 6 q r g | %.{ { { { . o - < . . . . { | @.%.r r q q q 6 $ . . .                     ",
"                                    . . . @ q t . r { %.%.%.%.%.. . . . . . . . %.%.%.%.. @ q t t q @ . . .                     ",
"                                . r { %.%.| h t t 8 @ . . . . . %.%.%.%.%.%.%.%.. . . . . $ q t t h | %.%.{ r .                 ",
"                                r g | %.%.+.k h h g & @ @ @ @ @ { { { { { { { { . . @ @ @ & s h h k +.%.%.| g r                 ",
"                            . . { | @.%.%.$.+.| | / s q q q q q r r r r r r r r . @ 6 q q s / | | +.$.%.%.@.| { . .             ",
"                            . . %.%.%.%.%.%.%.%.%.| h t t t t t . . . . . . . . . @ q t t h | %.%.%.%.%.%.%.%.%.. .             ",
"                            . . %.%.%.%.%.%.%.%.%.{ r . . : v M M M M M M M M M . . . . . r { %.%.%.%.%.%.%.%.%.. .             ",
"                            . . %.%.%.%.%.@.| { %.{ r . : y b M M M M M M M M M : * o . . r { %.{ | @.%.%.%.%.%.. .             ",
"                            . . %.%.%.%.%.| g r %.{ r . v b m M M M M M M M M M v l * . . r { %.r g | %.%.%.%.%.. .             ",
"                            . . %.%.%.%.%.{ r . %.{ r . M M M M M M M M M M M M M v : . . r { %.. r { %.%.%.%.%.. .             ",
"                                . r { %.%.%.%.%.. : v M M M M M . . . . . : v M M M M M . . . . %.%.%.%.%.{ r .                 ",
"                                . q ! { { { { { . > B A A C n v . . . . . = x v A A A A . . . . { { { { { ! q .                 ",
"                                    q r r r r r . e ( X.X.) u :             = : X.X.X.X.. . . . r r r r r q                     ",
"                                    . . . . . . . r { %.%.{ r .             . . %.%.%.%.. . . . . . . . . .                     ",
"                                            . . %.%.%.%.. .                     . r { %.%.{ r .                                 ",
"                                            . . O.O.O.O.. .                     . 9 ] O.O.] 9 .                                 ",
"                                    . . . . . . E E E E . .                     . 3 T E E T 3 . . . . .                         ",
"                                    . . . . . . U U U U . .                     . 2 L U U L 2 . . . . .                         ",
"                                . r { %.U U U U . . . . U L 2 .             . . U L 2 . . 2 L U U E O.%.. .                     ",
"                                . 9 ] O.U U U U 2 2 2 2 U L 2 .             . . U P p 2 2 p P U U R [ O.. .                     ",
"                                . 3 T E U U U U L L L L U L 2 .             . . U I P L L P I U U Y R E . .                     ",
"                                . 2 L U U U U U U U U U U L 2 .             . . U U U U U U U U U U U U . .                     ",
"                                . 2 L U U U U U U U U U . . . .             . . . 2 L U U U U U U U U U . .                     ",
"                                . 2 K L L L L L L L L L . . . .             . . . , J L L L L L L L L L . .                     ",
"                                    2 2 2 2 2 2 2 2 2 2 . .                     . + , 2 2 2 2 2 2 2 2 2                         "
};
